<?xml version="1.0" encoding="utf-8"?>
<!-- Generator: Adobe Illustrator 23.0.1, SVG Export Plug-In . SVG Version: 6.00 Build 0)  -->
<svg version="1.1" id="Capa_1" xmlns="http://www.w3.org/2000/svg" xmlns:xlink="http://www.w3.org/1999/xlink" x="0px" y="0px"
	 viewBox="0 0 250 250" style="enable-background:new 0 0 250 250;" xml:space="preserve">
<style type="text/css">
	.st0{fill:none;stroke:#FFFFFF;stroke-width:13;stroke-linecap:round;stroke-linejoin:round;stroke-miterlimit:10;}
</style>
<g>
	<path d="M125,43.12l82.38,82.38L125,207.88L42.62,125.5L125,43.12 M125,26.14L25.65,125.5L125,224.86l99.36-99.36L125,26.14
		L125,26.14z"/>
</g>
<g>
	<line class="st0" x1="125.5" y1="26.5" x2="125.5" y2="224.5"/>
</g>
<g>
	<line class="st0" x1="224.5" y1="125.5" x2="25.5" y2="125.5"/>
</g>
<g>
	<g>
		<path d="M139.81,152.31h-29.38c-3.98,0-7.38-0.9-10.2-2.71c-2.82-1.81-4.24-3.97-4.24-6.48V104.6c0-2.54,1.41-4.71,4.24-6.52
			c2.82-1.81,6.22-2.71,10.2-2.71h29.38c3.97,0,7.38,0.9,10.2,2.71c2.82,1.81,4.24,3.98,4.24,6.52v5.67h-18.34v-0.63
			c0-0.89-0.49-1.66-1.48-2.29c-0.99-0.63-2.18-0.95-3.59-0.95h-10.59c-1.38,0-2.56,0.32-3.57,0.95c-1,0.63-1.5,1.4-1.5,2.29v27.77
			c0,0.89,0.5,1.66,1.5,2.29c1,0.63,2.19,0.95,3.57,0.95h10.59c1.41,0,2.6-0.31,3.57-0.93c0.97-0.62,1.45-1.39,1.45-2.31l-0.05-2.57
			h-7.92v-11.88h26.37v20.16c0,2.51-1.41,4.68-4.24,6.48S143.79,152.31,139.81,152.31z"/>
	</g>
</g>
</svg>
